<?xml version="1.0" standalone="no"?>
<!DOCTYPE svg PUBLIC "-//W3C//DTD SVG 20010904//EN"
 "http://www.w3.org/TR/2001/REC-SVG-20010904/DTD/svg10.dtd">
<svg version="1.0" xmlns="http://www.w3.org/2000/svg"
 width="512pt" height="512pt" viewBox="0 0 460.000000 450.000000"
 preserveAspectRatio="xMidYMid meet">

<g transform="translate(0.000000,450.000000) scale(0.100000,-0.100000)"
fill="#000000" stroke="none">
<path d="M1733 3263 l-83 -4 0 -159 0 -160 135 0 135 0 0 165 0 165 -52 -2
c-29 -1 -90 -4 -135 -5z"/>
<path d="M2010 3182 c0 -49 3 -124 7 -166 l6 -78 226 4 c216 3 228 2 266 -19
76 -40 115 -105 115 -188 0 -83 -39 -148 -115 -188 -37 -20 -57 -22 -267 -25
l-228 -3 0 -163 0 -163 233 4 c266 5 311 11 407 59 446 224 371 875 -115 999
-45 11 -117 15 -297 15 l-238 0 0 -88z"/>
<path d="M1703 2513 l-43 -4 0 -160 0 -159 135 0 135 0 0 165 0 165 -92 -2
c-51 -1 -112 -3 -135 -5z"/>
</g>
</svg>
